 <svg  version="1.0" xmlns="http://www.w3.org/2000/svg"  width="300.000000pt" height="300.000000pt" viewBox="0 0 300.000000 300.000000"  preserveAspectRatio="xMidYMid meet">  <g transform="translate(0.000000,300.000000) scale(0.100000,-0.100000)" fill="#ff0019" stroke="none"> <path d="M482 2668 l-262 -151 2 -876 3 -875 510 -294 c280 -161 516 -291 525 -289 13 3 1007 572 1020 584 3 3 7 133 10 289 l5 285 240 138 240 138 3 303 c1 209 -1 307 -9 316 -18 22 -518 306 -532 302 -7 -2 -128 -70 -269 -151 -162 -94 -258 -155 -261 -166 -2 -11 -2 -138 0 -284 l5 -264 -188 -108 c-104 -60 -199 -115 -211 -122 l-21 -14 3 526 c2 290 0 536 -4 547 -7 19 -511 318 -535 318 -6 0 -129 -69 -274 -152z m331 89 c23 -13 72 -43 110 -65 37 -23 69 -42 72 -42 9 0 250 -145 257 -155 4 -5 8 -243 8 -527 l0 -517 22 -21 c27 -25 29 -25 70 -1 91 52 180 103 210 119 114 65 159 95 168 112 6 11 10 124 10 284 0 219 3 267 15 279 8 8 58 39 112 68 54 29 127 70 162 91 35 22 97 58 138 80 l75 41 37 -18 c20 -9 74 -40 121 -68 47 -28 137 -80 200 -115 63 -35 123 -71 133 -80 15 -14 17 -40 17 -281 0 -146 -3 -276 -6 -287 -3 -13 -27 -33 -57 -50 -164 -88 -395 -229 -414 -252 -22 -26 -23 -32 -23 -292 l0 -265 -26 -20 c-27 -21 -77 -51 -179 -105 -33 -18 -104 -59 -157 -91 -54 -32 -126 -74 -160 -92 -35 -19 -87 -48 -116 -66 -29 -17 -57 -31 -62 -31 -6 0 -10 -4 -10 -10 0 -5 -4 -10 -9 -10 -5 0 -31 -13 -58 -28 -26 -16 -83 -50 -127 -75 -43 -26 -84 -47 -91 -47 -7 0 -42 16 -77 36 -34 20 -88 50 -118 67 -30 17 -86 49 -125 72 -38 23 -101 59 -140 80 -38 21 -99 56 -135 78 -36 22 -85 51 -110 65 -115 63 -238 137 -268 159 l-32 24 0 843 c0 790 1 844 18 858 15 13 116 73 272 160 25 14 79 46 120 72 41 25 83 46 93 46 10 0 37 -11 60 -23z"/> <path d="M681 2724 c-35 -19 -76 -43 -91 -54 -15 -11 -38 -24 -51 -30 -13 -5 -42 -21 -64 -34 -22 -14 -54 -32 -71 -41 -42 -21 -74 -52 -74 -71 0 -18 50 -66 88 -85 15 -7 45 -24 66 -37 22 -14 62 -37 90 -52 28 -15 76 -41 106 -58 30 -18 64 -32 75 -32 11 0 60 23 109 50 49 28 90 50 92 50 1 0 38 21 81 48 43 26 90 54 105 61 17 9 30 25 34 43 7 34 -6 50 -71 85 -22 11 -56 30 -75 42 -80 47 -109 64 -185 106 -44 24 -84 44 -90 44 -5 0 -39 -15 -74 -35z m296 -122 l193 -110 -208 -119 -207 -119 -30 18 c-17 10 -109 64 -207 119 l-176 101 51 28 c29 15 122 68 207 118 108 62 160 88 170 82 8 -5 102 -58 207 -118z"/> <path d="M2178 2446 c-35 -18 -83 -45 -108 -59 -25 -15 -83 -48 -128 -74 -77 -44 -132 -87 -132 -102 1 -19 39 -47 160 -117 207 -121 262 -148 291 -141 35 9 371 205 392 229 9 11 17 26 17 34 0 17 -34 48 -74 69 -17 8 -40 21 -51 28 -45 28 -98 59 -147 86 -29 15 -69 37 -88 48 -61 34 -67 34 -132 -1z m292 -129 c91 -52 172 -96 180 -99 10 -3 4 -11 -20 -23 -19 -10 -114 -64 -211 -120 l-175 -101 -207 119 -207 120 113 62 c61 35 155 88 207 119 l94 55 31 -18 c16 -11 104 -61 195 -114z"/> <path d="M287 2422 c-15 -17 -17 -89 -17 -812 l-1 -793 27 -28 c15 -16 37 -32 48 -35 12 -4 50 -24 85 -45 34 -22 64 -39 66 -39 2 0 33 -18 70 -41 64 -39 84 -50 173 -100 88 -50 131 -75 199 -116 40 -24 75 -43 77 -43 2 0 43 -22 89 -49 74 -43 88 -47 108 -37 13 6 26 22 29 36 3 14 5 121 3 239 -3 248 4 230 -112 293 -42 23 -87 49 -101 58 -14 10 -70 41 -125 70 -55 29 -112 62 -127 72 l-28 19 0 552 0 552 -23 27 c-12 15 -49 41 -82 58 -33 18 -67 38 -76 46 -8 8 -19 14 -22 14 -4 0 -25 11 -46 24 -57 36 -173 96 -187 96 -6 0 -18 -8 -27 -18z m261 -145 l163 -94 -1 -560 c0 -523 1 -561 17 -575 10 -9 123 -75 251 -147 l232 -132 0 -241 c0 -222 -1 -239 -16 -227 -9 8 -213 127 -453 265 l-436 251 -3 802 -2 802 42 -25 c24 -13 116 -67 206 -119z"/> <path d="M1136 2414 c-27 -14 -62 -34 -77 -43 -71 -42 -216 -126 -234 -135 -28 -16 -55 -46 -60 -70 -3 -12 -4 -243 -2 -513 2 -484 2 -493 23 -513 l21 -21 64 34 c69 36 146 79 194 108 17 10 50 30 75 43 92 51 94 55 101 153 3 48 4 283 3 521 -1 410 -3 434 -20 447 -26 20 -32 19 -88 -11z m74 -512 l0 -518 -203 -117 c-112 -64 -206 -117 -208 -117 -2 0 -3 233 -1 517 l3 518 202 117 c111 64 203 117 205 117 1 1 2 -232 2 -517z"/> <path d="M1775 2140 c-17 -19 -19 -40 -18 -248 l2 -227 38 -34 c21 -18 48 -37 60 -42 13 -5 80 -41 150 -81 196 -112 180 -106 206 -80 21 22 22 28 21 248 -2 261 6 240 -117 313 -148 88 -301 171 -314 171 -6 0 -18 -9 -28 -20z m427 -473 c2 -130 1 -236 -2 -235 -3 2 -30 18 -60 35 -30 18 -120 70 -200 116 l-145 84 -3 235 -2 236 204 -117 205 -116 3 -238z"/> <path d="M2645 2144 c-94 -49 -180 -99 -183 -106 -2 -4 -8 -8 -13 -8 -23 0 -177 -103 -187 -126 -8 -16 -12 -99 -12 -239 0 -207 1 -215 22 -235 12 -11 26 -20 31 -20 6 0 57 27 114 60 58 33 106 60 108 60 3 0 115 68 183 111 22 14 22 16 22 250 0 216 -2 237 -18 252 -23 21 -29 21 -67 1z m55 -238 l0 -234 -177 -103 c-98 -56 -190 -110 -205 -120 -14 -11 -28 -19 -30 -19 -1 0 -2 107 -1 237 l3 236 202 118 c112 65 204 118 206 118 1 1 2 -104 2 -233z"/> <path d="M1685 1598 c-22 -11 -76 -42 -120 -68 -44 -26 -101 -59 -126 -73 -76 -41 -93 -51 -109 -63 -8 -6 -35 -23 -60 -36 -25 -14 -65 -37 -90 -50 -25 -14 -61 -34 -80 -45 -123 -67 -255 -151 -268 -172 -15 -22 -15 -25 11 -46 59 -52 375 -225 409 -225 12 0 34 6 48 13 101 54 211 116 225 127 11 8 57 35 143 81 28 16 70 40 92 54 22 14 42 25 45 25 3 0 22 10 43 23 20 13 66 40 102 59 161 88 214 124 220 149 7 29 -23 60 -92 95 -26 13 -87 48 -135 76 -181 107 -192 110 -258 76z m263 -117 c106 -61 198 -111 203 -111 5 0 9 -4 9 -10 0 -5 -4 -10 -9 -10 -5 0 -209 -114 -455 -254 l-445 -254 -188 107 c-103 59 -197 110 -208 115 -17 6 -8 14 53 49 41 23 246 141 455 263 210 121 384 220 387 218 3 -1 92 -52 198 -113z"/> <path d="M2119 1276 c-36 -18 -108 -58 -160 -88 -194 -114 -324 -187 -333 -186 -5 0 -12 -4 -15 -9 -3 -5 -31 -23 -61 -39 -30 -16 -56 -32 -58 -36 -2 -5 -8 -8 -14 -8 -5 0 -52 -25 -103 -56 -62 -37 -97 -66 -105 -83 -7 -17 -9 -104 -8 -245 l3 -219 28 -21 c17 -12 31 -17 35 -11 4 6 21 17 37 25 17 8 74 41 128 73 54 31 103 57 108 57 5 0 9 5 9 10 0 6 5 10 11 10 7 0 35 14 63 32 28 17 70 42 94 55 23 12 61 34 85 47 75 41 92 51 107 62 8 6 42 26 75 44 33 18 73 40 90 49 16 9 45 30 64 48 l35 31 -1 227 c-1 201 -3 229 -19 246 -9 10 -20 19 -23 19 -3 0 -36 -15 -72 -34z m83 -223 l-3 -238 -306 -175 c-168 -96 -373 -214 -454 -262 l-149 -86 0 238 0 238 428 242 c235 134 438 251 452 261 14 10 27 19 30 19 3 0 4 -107 2 -237z"/> </g> </svg> 